<svg xmlns="http://www.w3.org/2000/svg" xmlns:xlink="http://www.w3.org/1999/xlink" viewBox="0 0 319.31 125"><defs><style>.cls-1{fill:#f7ad86;}.cls-2{isolation:isolate;}.cls-10,.cls-11,.cls-12,.cls-13,.cls-14,.cls-15,.cls-16,.cls-17,.cls-18,.cls-19,.cls-21,.cls-22,.cls-24,.cls-26,.cls-28,.cls-29,.cls-3,.cls-30,.cls-31,.cls-32,.cls-34,.cls-35,.cls-36,.cls-38,.cls-39,.cls-40,.cls-41,.cls-42,.cls-43,.cls-44,.cls-46,.cls-5,.cls-52,.cls-55,.cls-57,.cls-59,.cls-6,.cls-60,.cls-8{mix-blend-mode:multiply;}.cls-3{fill:url(#radial-gradient);}.cls-4{clip-path:url(#clip-path);}.cls-5{fill:url(#radial-gradient-2);}.cls-6{fill:url(#radial-gradient-3);}.cls-7{clip-path:url(#clip-path-2);}.cls-8{fill:url(#radial-gradient-4);}.cls-20,.cls-23,.cls-27,.cls-33,.cls-37,.cls-45,.cls-47,.cls-48,.cls-49,.cls-50,.cls-51,.cls-53,.cls-54,.cls-56,.cls-58,.cls-61,.cls-62,.cls-9{mix-blend-mode:screen;}.cls-9{fill:url(#radial-gradient-5);}.cls-10{fill:url(#radial-gradient-6);}.cls-11{fill:url(#radial-gradient-7);}.cls-12{fill:url(#radial-gradient-8);}.cls-13{fill:url(#radial-gradient-9);}.cls-14{fill:url(#radial-gradient-10);}.cls-15{fill:url(#radial-gradient-11);}.cls-16{fill:url(#radial-gradient-12);}.cls-17{fill:url(#radial-gradient-13);}.cls-18{fill:url(#radial-gradient-14);}.cls-19{fill:url(#radial-gradient-15);}.cls-20{fill:url(#radial-gradient-16);}.cls-21{fill:url(#radial-gradient-17);}.cls-22{fill:url(#radial-gradient-18);}.cls-23{fill:url(#radial-gradient-19);}.cls-24{fill:url(#radial-gradient-20);}.cls-25{clip-path:url(#clip-path-3);}.cls-26{fill:url(#radial-gradient-22);}.cls-27{fill:url(#radial-gradient-23);}.cls-28{fill:url(#radial-gradient-24);}.cls-29{fill:url(#radial-gradient-25);}.cls-30{fill:url(#radial-gradient-26);}.cls-31{fill:url(#radial-gradient-27);}.cls-32{fill:url(#radial-gradient-28);}.cls-33{fill:url(#radial-gradient-29);}.cls-34{fill:url(#radial-gradient-30);}.cls-35{fill:url(#radial-gradient-31);}.cls-36{fill:url(#radial-gradient-32);}.cls-37{fill:url(#radial-gradient-33);}.cls-38{fill:url(#radial-gradient-34);}.cls-39{fill:url(#radial-gradient-35);}.cls-40{fill:url(#radial-gradient-36);}.cls-41{fill:url(#radial-gradient-37);}.cls-42{fill:url(#radial-gradient-38);}.cls-43{fill:url(#radial-gradient-39);}.cls-44{fill:url(#radial-gradient-40);}.cls-45{fill:url(#radial-gradient-41);}.cls-46{fill:url(#radial-gradient-42);}.cls-47{fill:url(#radial-gradient-43);}.cls-48{fill:url(#radial-gradient-44);}.cls-49{fill:url(#radial-gradient-45);}.cls-50{fill:url(#radial-gradient-46);}.cls-51{fill:url(#radial-gradient-47);}.cls-52{fill:url(#radial-gradient-48);}.cls-53{fill:url(#radial-gradient-49);}.cls-54{fill:url(#radial-gradient-50);}.cls-55{fill:url(#radial-gradient-51);}.cls-56{fill:url(#radial-gradient-52);}.cls-57{fill:url(#radial-gradient-53);}.cls-58{fill:url(#radial-gradient-54);}.cls-59{fill:url(#radial-gradient-55);}.cls-60{fill:url(#radial-gradient-56);}.cls-61{fill:url(#radial-gradient-57);}.cls-62{fill:url(#radial-gradient-58);}</style><radialGradient id="radial-gradient" cx="82.99" cy="-600.89" r="47.97" gradientTransform="translate(-15.16 246.42) scale(2.45 0.22)" gradientUnits="userSpaceOnUse"><stop offset="0.3" stop-color="#ebe5e3"/><stop offset="0.37" stop-color="#eee9e7"/><stop offset="0.74" stop-color="#fbf9f9"/><stop offset="1" stop-color="#fff"/></radialGradient><clipPath id="clip-path"><path class="cls-1" d="M113.5,92.09c-4,1.22-7.87,2.61-11.2,3.45,6.54-.11,12.78.87,14.63-1.71a3,3,0,0,0,.52-2.09l.19-.38A21.49,21.49,0,0,0,113.5,92.09Z"/></clipPath><radialGradient id="radial-gradient-2" cx="-183.94" cy="381.12" r="7.52" gradientTransform="matrix(-2.77, 0.59, 0.24, 1.12, -483.94, -229.56)" gradientUnits="userSpaceOnUse"><stop offset="0.23" stop-color="#b66f57"/><stop offset="0.45" stop-color="#d7b0a3"/><stop offset="0.62" stop-color="#e7d1c9"/><stop offset="0.81" stop-color="#f5ece9"/><stop offset="1" stop-color="#fff"/></radialGradient><radialGradient id="radial-gradient-3" cx="-180.13" cy="377.73" r="7.52" xlink:href="#radial-gradient-2"/><clipPath id="clip-path-2"><path class="cls-1" d="M101.53,78.44c5.79,3.75,2.66,10.86,18.57,12.76,0,0,0,0,0,0,11.47-.45,29.78,2.32,38.78,2.16,11.06-.19,15.74-13.86,22.94-17S228.77,74.8,238.28,74s16.35-10.51,14.26-23.59-12.48-29.62-24.19-27.06-37.89,6.74-47.78,8.39-13.48,6.39-32.79,5.46S111.42,29,105.53,29.7q-.63.07-1.41.12c-7.05,1-9.11,6.42-6,12,2.76,4.9-7.19,7.23-1.93,17.27C101.16,68.49,91.15,71.69,101.53,78.44Z"/></clipPath><radialGradient id="radial-gradient-4" cx="-353.22" cy="-598.5" r="14.36" gradientTransform="matrix(5.4, -0.2, -0.07, -1.95, 2076.01, -1182.83)" gradientUnits="userSpaceOnUse"><stop offset="0.2" stop-color="#eddad3"/><stop offset="0.45" stop-color="#e9d1c9"/><stop offset="0.59" stop-color="#f1e1dc"/><stop offset="0.77" stop-color="#faf4f2"/><stop offset="1" stop-color="#fff"/></radialGradient><radialGradient id="radial-gradient-5" cx="-354.38" cy="-473.02" r="20.31" gradientTransform="matrix(4.25, -0.72, -0.19, -1.13, 1647.35, -762.64)" gradientUnits="userSpaceOnUse"><stop offset="0.1" stop-color="#e09c94"/><stop offset="0.31" stop-color="#e0695a"/><stop offset="0.59" stop-color="#411f1a"/><stop offset="0.73" stop-color="#1b0d0b"/><stop offset="0.84" stop-color="#080403"/><stop offset="1"/></radialGradient><radialGradient id="radial-gradient-6" cx="-356.96" cy="-557.13" r="20.31" gradientTransform="matrix(4.25, -0.72, -0.26, -1.54, 1596.83, -1057.27)" gradientUnits="userSpaceOnUse"><stop offset="0.23" stop-color="#ecd8d1"/><stop offset="0.46" stop-color="#f1e1dc"/><stop offset="0.77" stop-color="#faf4f2"/><stop offset="1" stop-color="#fff"/></radialGradient><radialGradient id="radial-gradient-7" cx="-470.07" cy="-633.07" r="15.66" gradientTransform="matrix(1.57, 1.07, 0.69, -1.01, 1334.86, -99.65)" xlink:href="#radial-gradient-6"/><radialGradient id="radial-gradient-8" cx="-375.86" cy="-616.68" r="13.73" gradientTransform="matrix(4.27, 0.57, 0.21, -1.55, 1923.29, -664.23)" xlink:href="#radial-gradient-6"/><radialGradient id="radial-gradient-9" cx="-373.81" cy="-642.68" r="12.97" gradientTransform="matrix(5.4, 0.73, 0.53, -3.95, 2493.9, -2200.58)" gradientUnits="userSpaceOnUse"><stop offset="0.41" stop-color="#eedcd6"/><stop offset="0.5" stop-color="#ead4cd"/><stop offset="0.59" stop-color="#f1e1dc"/><stop offset="0.77" stop-color="#faf4f2"/><stop offset="1" stop-color="#fff"/></radialGradient><radialGradient id="radial-gradient-10" cx="-368.87" cy="-588.58" r="2.56" gradientTransform="matrix(6.1, -1.21, -0.36, -1.79, 2128.33, -1436.65)" xlink:href="#radial-gradient-4"/><radialGradient id="radial-gradient-11" cx="-360.47" cy="-630.34" r="9.9" gradientTransform="matrix(6.54, 0.39, 0.12, -2.09, 2572.53, -1081.44)" xlink:href="#radial-gradient-4"/><radialGradient id="radial-gradient-12" cx="-364.79" cy="-597.46" r="7.27" gradientTransform="matrix(5.67, 0.34, 0.08, -1.33, 2262.36, -584.19)" xlink:href="#radial-gradient-4"/><radialGradient id="radial-gradient-13" cx="-391.15" cy="-496.09" r="5.94" gradientTransform="matrix(2.14, -1.2, -0.65, -1.16, 674.58, -962.17)" gradientUnits="userSpaceOnUse"><stop offset="0" stop-color="#eddad3"/><stop offset="0.77" stop-color="#faf4f2"/><stop offset="1" stop-color="#fff"/></radialGradient><radialGradient id="radial-gradient-14" cx="-378.3" cy="-395.77" r="5.94" gradientTransform="matrix(2.48, -1.39, -0.43, -0.76, 939.74, -745.03)" gradientUnits="userSpaceOnUse"><stop offset="0" stop-color="#eedbd5"/><stop offset="0.24" stop-color="#f1e1dc"/><stop offset="0.77" stop-color="#faf4f2"/><stop offset="1" stop-color="#fff"/></radialGradient><radialGradient id="radial-gradient-15" cx="-360.46" cy="-525.1" r="14.36" gradientTransform="matrix(4.63, -0.17, -0.03, -0.87, 1856.92, -447.26)" xlink:href="#radial-gradient-4"/><radialGradient id="radial-gradient-16" cx="-375.75" cy="-589.75" r="15.34" gradientTransform="matrix(5.4, 0.73, 0.18, -1.31, 2260.05, -460.09)" gradientUnits="userSpaceOnUse"><stop offset="0.2" stop-color="#e0695a"/><stop offset="0.32" stop-color="#793931"/><stop offset="0.49" stop-color="#411f1a"/><stop offset="0.65" stop-color="#1b0d0b"/><stop offset="0.84" stop-color="#080403"/><stop offset="1"/></radialGradient><radialGradient id="radial-gradient-17" cx="-373.68" cy="-657.53" r="6.06" gradientTransform="matrix(6.54, 2.6, 0.68, -1.7, 2957.06, -108.57)" xlink:href="#radial-gradient-4"/><radialGradient id="radial-gradient-18" cx="-366.19" cy="-581.12" r="2.95" gradientTransform="matrix(10.58, -2.73, -0.48, -1.85, 3725.01, -2004.65)" xlink:href="#radial-gradient-6"/><radialGradient id="radial-gradient-19" cx="-366.59" cy="-562.6" r="6.34" gradientTransform="matrix(5.41, -0.65, -0.16, -1.32, 2031.95, -902.39)" gradientUnits="userSpaceOnUse"><stop offset="0.24" stop-color="#793931"/><stop offset="0.42" stop-color="#411f1a"/><stop offset="0.65" stop-color="#1b0d0b"/><stop offset="0.84" stop-color="#080403"/><stop offset="1"/></radialGradient><radialGradient id="radial-gradient-20" cx="-395.21" cy="-562.3" r="3.47" gradientTransform="matrix(3.05, -0.94, -0.51, -1.63, 1031.74, -1204.79)" xlink:href="#radial-gradient-6"/><clipPath id="clip-path-3"><path class="cls-1" d="M95.32,84.88c-3.51,3.33-6,6.15-2.78,9.6,2.12,2.27,5.55,2.11,9.76,1.06h0c3.33-.84,7.15-2.23,11.2-3.45a21.49,21.49,0,0,1,4.14-.73c.78-.08,1.6-.13,2.46-.16-15.91-1.9-12.78-9-18.57-12.76-10.38-6.75-.37-10-5.3-19.35-5.26-10,4.69-12.37,1.93-17.27-3.15-5.58-1.09-11,6-12-6.68.39-20.82-.94-26.34-4.61-5.93-3.95-16.47-5.09-22.1-5.93S37.92,8.61,31.93,15.53c-2.55,2.94-.13,8.24,9.51,12.57s16.74,6.3,26.3,10.15,17.49,8.15,14,9.36-17.22,3.13-26,3c-11.51-.16-19.08,3.55-24.22,3.51s-13.18,2-10.68,7.79,12,5.72,21.83,4.15,22.89-.64,30.09.1A66.45,66.45,0,0,0,86.65,66s7.27-.49-.39,6.17C80.77,77,79.61,80.9,80.41,83.24,80.41,83.24,83.74,91.58,95.32,84.88Z"/></clipPath><radialGradient id="radial-gradient-22" cx="-385.13" cy="-654.09" r="3.53" gradientTransform="matrix(5.37, 2.14, 0.8, -2.02, 2667.9, -472.87)" gradientUnits="userSpaceOnUse"><stop offset="0.23" stop-color="#f6ede9"/><stop offset="0.42" stop-color="#f2e3de"/><stop offset="0.69" stop-color="#faf4f2"/><stop offset="1" stop-color="#fff"/></radialGradient><radialGradient id="radial-gradient-23" cx="-470.78" cy="-586.77" r="7.21" gradientTransform="matrix(2.26, 0.3, 0.18, -1.31, 1271.24, -591.79)" xlink:href="#radial-gradient-16"/><radialGradient id="radial-gradient-24" cx="-364.71" cy="-600.87" r="6.06" gradientTransform="matrix(7.57, -0.6, -0.15, -1.82, 2753.46, -1253.56)" xlink:href="#radial-gradient-4"/><radialGradient id="radial-gradient-25" cx="-376.46" cy="-601.62" r="6.06" gradientTransform="matrix(6.2, -0.49, -0.15, -1.82, 2306.95, -1217.97)" xlink:href="#radial-gradient-4"/><radialGradient id="radial-gradient-26" cx="-368.93" cy="-588.75" r="2.56" gradientTransform="matrix(6.1, -1.21, -0.36, -1.79, 2128.33, -1436.65)" xlink:href="#radial-gradient-4"/><radialGradient id="radial-gradient-27" cx="-378.12" cy="-637.72" r="2.56" gradientTransform="matrix(6.09, 1.23, 0.4, -2, 2640.75, -767.6)" xlink:href="#radial-gradient-4"/><radialGradient id="radial-gradient-28" cx="-352.8" cy="-593.45" r="4.01" gradientTransform="matrix(6.38, -3.55, -1.12, -2.02, 1675.47, -2364.92)" xlink:href="#radial-gradient-4"/><radialGradient id="radial-gradient-29" cx="-357.76" cy="-551.08" r="3.27" gradientTransform="matrix(5.04, -3.43, -0.99, -1.46, 1352.15, -1943.14)" xlink:href="#radial-gradient-16"/><radialGradient id="radial-gradient-30" cx="-361.2" cy="-533.87" r="6.89" gradientTransform="matrix(5.43, -1.68, -0.39, -1.27, 1856.82, -1192.06)" xlink:href="#radial-gradient-4"/><radialGradient id="radial-gradient-31" cx="-358.67" cy="-533.1" r="6.2" gradientTransform="matrix(5.43, -1.68, -0.39, -1.27, 1856.82, -1192.06)" xlink:href="#radial-gradient-4"/><radialGradient id="radial-gradient-32" cx="-419.22" cy="-527.36" r="4.72" gradientTransform="matrix(2.25, -0.7, -0.39, -1.27, 845.08, -878.34)" gradientUnits="userSpaceOnUse"><stop offset="0.23" stop-color="#d7b0a3"/><stop offset="0.62" stop-color="#e7d1c9"/><stop offset="0.81" stop-color="#f5ece9"/><stop offset="1" stop-color="#fff"/></radialGradient><radialGradient id="radial-gradient-33" cx="-358.5" cy="-542.21" r="2.57" gradientTransform="matrix(5.04, -3.43, -0.99, -1.46, 1352.15, -1943.14)" xlink:href="#radial-gradient-16"/><radialGradient id="radial-gradient-34" cx="-344.84" cy="-563.81" r="1.46" gradientTransform="matrix(9.66, -5.38, -0.89, -1.6, 2921.06, -2667.82)" gradientUnits="userSpaceOnUse"><stop offset="0.12" stop-color="#b67a66"/><stop offset="0.47" stop-color="#d8b8ad"/><stop offset="0.77" stop-color="#f1e6e2"/><stop offset="1" stop-color="#fff"/></radialGradient><radialGradient id="radial-gradient-35" cx="-352.27" cy="-602.83" r="1.46" gradientTransform="matrix(6.13, -3.41, -1.24, -2.24, 1515.52, -2471.3)" xlink:href="#radial-gradient-14"/><radialGradient id="radial-gradient-36" cx="-353.09" cy="-598.88" r="1.46" gradientTransform="matrix(6.13, -3.41, -1.24, -2.24, 1515.52, -2471.3)" xlink:href="#radial-gradient-14"/><radialGradient id="radial-gradient-37" cx="-409.11" cy="-590.96" r="6.71" gradientTransform="matrix(3.91, -0.31, -0.14, -1.73, 1542.43, -1088.61)" gradientUnits="userSpaceOnUse"><stop offset="0.18" stop-color="#f5e8e5"/><stop offset="0.45" stop-color="#e9d1c9"/><stop offset="0.59" stop-color="#f1e1dc"/><stop offset="0.77" stop-color="#faf4f2"/><stop offset="1" stop-color="#fff"/></radialGradient><radialGradient id="radial-gradient-38" cx="-403.6" cy="-617.33" r="5.88" gradientTransform="matrix(3.92, 0.02, 0.01, -2.08, 1649.11, -1217.34)" xlink:href="#radial-gradient-22"/><radialGradient id="radial-gradient-39" cx="-353.99" cy="-660.74" r="2.94" gradientTransform="matrix(13.84, 5.51, 1.74, -4.36, 6109.92, -899.3)" xlink:href="#radial-gradient-4"/><radialGradient id="radial-gradient-40" cx="-379.21" cy="-657.23" r="4.66" gradientTransform="matrix(7.32, 2.91, 1.01, -2.53, 3477.32, -541.09)" xlink:href="#radial-gradient-37"/><radialGradient id="radial-gradient-41" cx="-426.75" cy="-574.57" r="7.21" gradientTransform="matrix(4.38, -0.14, -0.04, -1.33, 1878.77, -763.24)" xlink:href="#radial-gradient-16"/><radialGradient id="radial-gradient-42" cx="-540.58" cy="919.99" r="3" gradientTransform="matrix(3.06, -0.3, -0.2, -2.11, 1867.81, 1837.55)" gradientUnits="userSpaceOnUse"><stop offset="0.2" stop-color="#ebd8d2"/><stop offset="0.59" stop-color="#ebc8bd"/><stop offset="0.77" stop-color="#faf4f2"/><stop offset="1" stop-color="#fff"/></radialGradient><radialGradient id="radial-gradient-43" cx="-541.06" cy="930.76" r="3" gradientTransform="matrix(3.06, -0.3, -0.18, -1.83, 1845.26, 1599.81)" gradientUnits="userSpaceOnUse"><stop offset="0.24" stop-color="#9e4a40"/><stop offset="0.36" stop-color="#793931"/><stop offset="0.49" stop-color="#411f1a"/><stop offset="0.65" stop-color="#1b0d0b"/><stop offset="0.84" stop-color="#080403"/><stop offset="1"/></radialGradient><radialGradient id="radial-gradient-44" cx="-519.1" cy="965.57" r="3" gradientTransform="matrix(4.16, -0.4, -0.13, -1.33, 2306.63, 1133.23)" xlink:href="#radial-gradient-16"/><radialGradient id="radial-gradient-45" cx="-413.15" cy="-549.37" r="5.29" gradientTransform="matrix(4.34, -0.63, -0.19, -1.31, 1761.89, -928.91)" xlink:href="#radial-gradient-16"/><radialGradient id="radial-gradient-46" cx="-416.62" cy="-625.11" r="5.29" gradientTransform="matrix(4.85, 1.53, 0.4, -1.27, 2338.9, -129.65)" xlink:href="#radial-gradient-16"/><radialGradient id="radial-gradient-47" cx="-417.56" cy="-640.68" r="5.29" gradientTransform="matrix(5.53, 1.74, 0.61, -1.93, 2733.52, -497.42)" xlink:href="#radial-gradient-16"/><radialGradient id="radial-gradient-48" cx="-551.23" cy="877.04" r="3.21" gradientTransform="matrix(2.86, 1.11, 0.77, -1.97, 942.01, 2362.45)" xlink:href="#radial-gradient-42"/><radialGradient id="radial-gradient-49" cx="-551.69" cy="878.51" r="3.21" gradientTransform="matrix(2.86, 1.11, 0.65, -1.68, 1039.93, 2110.47)" xlink:href="#radial-gradient-43"/><radialGradient id="radial-gradient-50" cx="-516.22" cy="885.7" r="3.21" gradientTransform="matrix(4.45, 1.73, 0.49, -1.26, 1898.63, 2028.3)" xlink:href="#radial-gradient-16"/><radialGradient id="radial-gradient-51" cx="-410" cy="-581.28" r="3.62" gradientTransform="matrix(4.53, 0.11, 0.03, -1.35, 1975.9, -685.54)" xlink:href="#radial-gradient-6"/><radialGradient id="radial-gradient-52" cx="-410.26" cy="-608.23" r="3.62" gradientTransform="matrix(4.53, 0.11, 0.05, -1.91, 1984.19, -1063.14)" xlink:href="#radial-gradient-16"/><radialGradient id="radial-gradient-53" cx="-368.82" cy="-595.53" r="3.62" gradientTransform="matrix(10.9, -0.84, -0.15, -1.9, 4060.47, -1386.8)" xlink:href="#radial-gradient-6"/><radialGradient id="radial-gradient-54" cx="-367.15" cy="-607.91" r="3.62" gradientTransform="matrix(12.21, 0.3, 0.05, -1.91, 4639.45, -999.89)" gradientUnits="userSpaceOnUse"><stop offset="0.37" stop-color="#411f1a"/><stop offset="0.56" stop-color="#301714"/><stop offset="0.84" stop-color="#080403"/><stop offset="1"/></radialGradient><radialGradient id="radial-gradient-55" cx="-470.03" cy="-556.17" r="6.68" gradientTransform="matrix(2.26, 0.3, 0.12, -0.93, 1236.38, -334.22)" xlink:href="#radial-gradient-6"/><radialGradient id="radial-gradient-56" cx="-419.99" cy="-606.43" r="6.68" gradientTransform="matrix(3.9, 1.19, 0.27, -0.9, 1915.05, -0.86)" xlink:href="#radial-gradient-6"/><radialGradient id="radial-gradient-57" cx="-471.45" cy="-552.35" r="6.1" gradientTransform="matrix(2.26, 0.3, 0.12, -0.93, 1236.38, -334.22)" xlink:href="#radial-gradient-16"/><radialGradient id="radial-gradient-58" cx="-384.95" cy="-577.05" r="2.94" gradientTransform="matrix(3.77, -2.23, -1.19, -2.01, 864.82, -1945.99)" xlink:href="#radial-gradient-16"/></defs><title>Asset 2</title><g class="cls-2"><g id="Layer_2" data-name="Layer 2"><g id="game"><path class="cls-3" d="M306.36,114.46c0,5.82-52.73,10.54-117.78,10.54S70.8,120.28,70.8,114.46s52.73-10.53,117.78-10.53S306.36,108.65,306.36,114.46Z"/><path class="cls-1" d="M113.5,92.09c-4,1.22-7.87,2.61-11.2,3.45,6.54-.11,12.78.87,14.63-1.71a3,3,0,0,0,.52-2.09l.19-.38A21.49,21.49,0,0,0,113.5,92.09Z"/><g class="cls-4"><path class="cls-5" d="M95.26,94.6c1,4.67,11.11,6.47,22.61,4s20-8.22,19-12.89-11.12-6.47-22.62-4S94.26,89.93,95.26,94.6Z"/><path class="cls-6" d="M83.91,93c1,4.67,11.12,6.47,22.61,4s20-8.22,19-12.88-11.12-6.47-22.61-4S82.91,88.37,83.91,93Z"/></g><path class="cls-1" d="M101.53,78.44c5.79,3.75,2.66,10.86,18.57,12.76,0,0,0,0,0,0,11.47-.45,29.78,2.32,38.78,2.16,11.06-.19,15.74-13.86,22.94-17S228.77,74.8,238.28,74s16.35-10.51,14.26-23.59-12.48-29.62-24.19-27.06-37.89,6.74-47.78,8.39-13.48,6.39-32.79,5.46S111.42,29,105.53,29.7q-.63.07-1.41.12c-7.05,1-9.11,6.42-6,12,2.76,4.9-7.19,7.23-1.93,17.27C101.16,68.49,91.15,71.69,101.53,78.44Z"/><g class="cls-7"><path class="cls-8" d="M290.12,51c-.58-15.44-35.77-26.66-78.58-25S134.47,41.35,135,56.79s35.77,26.66,78.6,25.05S290.7,66.42,290.12,51Z"/><path class="cls-9" d="M319.22,14.27C317.06,1.57,276.68-2.14,229,6s-84.52,25-82.37,37.67,42.54,16.41,90.19,8.3S321.38,27,319.22,14.27Z"/><path class="cls-10" d="M312.86,45.06c-2.94-17.29-43.95-24.73-91.6-16.63s-83.89,28.7-80.94,46,44,24.74,91.6,16.63S315.81,62.35,312.86,45.06Z"/><path class="cls-11" d="M184.45,50.78c6-8.73-.19-23.33-13.76-32.63s-29.43-9.75-35.4-1,.2,23.34,13.77,32.63S178.49,59.5,184.45,50.78Z"/><path class="cls-12" d="M248.22,83.81C249.8,72.05,224.83,59,192.44,54.65S132.54,56.3,131,68.05s23.39,24.8,55.77,29.15S246.64,95.56,248.22,83.81Z"/><path class="cls-13" d="M203.41,77.51c3.8-28.31-24.48-55.47-63.17-60.67s-73.16,13.53-77,41.84,24.48,55.48,63.18,60.68S199.61,105.82,203.41,77.51Z"/><path class="cls-14" d="M106,63.93c-.51-2.54-7.91-3.21-16.53-1.49s-15.2,5.17-14.7,7.7,7.91,3.21,16.53,1.49S106.47,66.46,106,63.93Z"/><path class="cls-15" d="M202.75,97.76c.68-11.41-27.74-22.38-63.47-24.52S74,78.64,73.35,90.05s27.73,22.39,63.48,24.52S202.07,109.18,202.75,97.76Z"/><path class="cls-16" d="M186.65,89.36C187,84,168.75,78.59,146,77.23s-41.52,1.87-41.84,7.21S122,95.21,144.82,96.57,186.33,94.7,186.65,89.36Z"/><path class="cls-17" d="M175.24,76.33c-2.14-3.81-9.56-3.71-16.58.23s-10.95,10.22-8.81,14,9.56,3.71,16.57-.23S177.38,80.14,175.24,76.33Z"/><path class="cls-18" d="M183.94,73.59c-1.39-2.48-9.13-.78-17.27,3.79s-13.61,10.3-12.22,12.78,9.13.79,17.27-3.79S185.34,76.08,183.94,73.59Z"/><path class="cls-19" d="M272.27,68.26c-.26-6.87-30.23-11.34-66.93-10s-66.25,8.07-66,15,30.22,11.34,66.93,10S272.53,75.14,272.27,68.26Z"/><path class="cls-20" d="M209,53.55c1.49-11.14-34.4-25.15-80.16-31.3s-84.08-2.11-85.58,9,34.39,25.15,80.17,31.3S207.52,64.68,209,53.55Z"/><path class="cls-21" d="M109.7,53.5c2.26-5.68-13.64-17.35-35.52-26S32.75,16.32,30.48,22,44.12,39.35,66,48.05,107.43,59.19,109.7,53.5Z"/><path class="cls-22" d="M157.43,60.51c-.78-3-15.36-1.84-32.58,2.6S94.3,73.59,95.07,76.6s15.37,1.83,32.59-2.61S158.21,63.51,157.43,60.51Z"/><path class="cls-23" d="M172.19,74.12c-.56-4.61-16.38-6.49-35.33-4.2S103,77.81,103.55,82.42s16.38,6.49,35.33,4.2S172.75,78.73,172.19,74.12Z"/><path class="cls-24" d="M122.22,83.52c-1-3.13-6.49-4.2-12.32-2.39s-9.79,5.82-8.82,9,6.49,4.19,12.33,2.39S123.19,86.65,122.22,83.52Z"/></g><path class="cls-1" d="M95.32,84.88c-3.51,3.33-6,6.15-2.78,9.6,2.12,2.27,5.55,2.11,9.76,1.06h0c3.33-.84,7.15-2.23,11.2-3.45a21.49,21.49,0,0,1,4.14-.73c.78-.08,1.6-.13,2.46-.16-15.91-1.9-12.78-9-18.57-12.76-10.38-6.75-.37-10-5.3-19.35-5.26-10,4.69-12.37,1.93-17.27-3.15-5.58-1.09-11,6-12-6.68.39-20.82-.94-26.34-4.61-5.93-3.95-16.47-5.09-22.1-5.93S37.92,8.61,31.93,15.53c-2.55,2.94-.13,8.24,9.51,12.57s16.74,6.3,26.3,10.15,17.49,8.15,14,9.36-17.22,3.13-26,3c-11.51-.16-19.08,3.55-24.22,3.51s-13.18,2-10.68,7.79,12,5.72,21.83,4.15,22.89-.64,30.09.1A66.45,66.45,0,0,0,86.65,66s7.27-.49-.39,6.17C80.77,77,79.61,80.9,80.41,83.24,80.41,83.24,83.74,91.58,95.32,84.88Z"/><g class="cls-25"><path class="cls-21" d="M109.7,53.5c2.26-5.68-13.64-17.35-35.52-26S32.75,16.32,30.48,22,44.12,39.35,66,48.05,107.43,59.19,109.7,53.5Z"/><path class="cls-26" d="M91,33.91C92.6,30,85.38,23.39,74.9,19.22s-20.24-4.35-21.82-.41S58.74,29.33,69.22,33.5,89.47,37.85,91,33.91Z"/><path class="cls-27" d="M120.59,38.77c.7-5.24-6-10.46-15-11.67S88.72,29.16,88,34.39s6,10.46,15,11.67S119.89,44,120.59,38.77Z"/><path class="cls-28" d="M125.42,58.66c-.49-6.1-21.42-9.41-46.75-7.38S33.18,59.89,33.67,66s21.42,9.4,46.76,7.38S125.91,64.77,125.42,58.66Z"/><path class="cls-29" d="M99.84,62.06C99.36,56,82.16,52.35,61.43,54s-37.15,8-36.66,14,17.69,9.7,38.42,8S100.33,68.16,99.84,62.06Z"/><path class="cls-30" d="M105.66,64.32c-.51-2.54-7.91-3.2-16.53-1.49S73.93,68,74.43,70.54,82.34,73.74,91,72,106.17,66.86,105.66,64.32Z"/><path class="cls-31" d="M96.06,48c.56-2.83-6-6.53-14.58-8.26s-16.07-.85-16.64,2,6,6.53,14.58,8.27S95.49,50.87,96.06,48Z"/><path class="cls-32" d="M117.13,68.82c-2.49-4.46-15.93-1.72-30,6.13S63.56,92.78,66,97.24,82,99,96.08,91.1,119.61,73.27,117.13,68.82Z"/><path class="cls-33" d="M113.88,76.7c-1.79-2.64-10.63.25-19.74,6.44s-15,13.36-13.23,16,10.63-.25,19.74-6.44S115.68,79.34,113.88,76.7Z"/><path class="cls-34" d="M143.74,83.23c-1.5-4.84-19.46-3.58-40.1,2.82S67.47,101.55,69,106.39s19.45,3.58,40.1-2.82S145.24,88.07,143.74,83.23Z"/><path class="cls-35" d="M153.49,79.14c-1.35-4.36-17.52-3.23-36.11,2.53S84.8,95.64,86.15,100s17.52,3.23,36.12-2.54S154.84,83.49,153.49,79.14Z"/><path class="cls-36" d="M118.32,82.29c-1-3.32-6.62-4.53-12.5-2.71S96,85.57,97,88.89s6.62,4.52,12.5,2.7S119.35,85.61,118.32,82.29Z"/><path class="cls-37" d="M97.78,68.72c-1.41-2.08-8.36.19-15.53,5.07S70.43,84.3,71.85,86.37s8.36-.19,15.52-5.07S99.19,70.79,97.78,68.72Z"/><path class="cls-38" d="M105.21,79.21c-.71-1.29-7.59,1.18-15.36,5.5S76.37,93.58,77.08,94.86s7.6-1.18,15.36-5.5S105.93,80.49,105.21,79.21Z"/><path class="cls-39" d="M116.64,73.3c-1-1.8-5.81-1-10.74,1.71s-8.1,6.42-7.1,8.22,5.8,1,10.73-1.71S117.63,75.1,116.64,73.3Z"/><path class="cls-40" d="M106.7,67.28c-1-1.8-5.81-1-10.73,1.71s-8.11,6.42-7.11,8.22,5.81,1,10.73-1.71S107.7,69.08,106.7,67.28Z"/><path class="cls-41" d="M52.44,57.72c-.51-6.4-12.66-10.66-27.14-9.51S-.49,55.5,0,61.9s12.66,10.66,27.13,9.5S53,64.12,52.44,57.72Z"/><path class="cls-42" d="M82.91,57C83,50.28,72.69,44.74,60,44.66S36.91,50,36.87,56.74,47.1,69,59.82,69.11,82.87,63.78,82.91,57Z"/><path class="cls-43" d="M103.5,51.39c2.82-7.09-13.14-20.1-35.65-29S24.8,11.88,22,19,35.12,39.08,57.64,48,100.68,58.49,103.5,51.39Z"/><path class="cls-44" d="M72.66,31.55C75.25,25,62.06,13.68,43.22,6.19S7-2.11,4.4,4.41,15,22.28,33.84,29.78,70.07,38.07,72.66,31.55Z"/><path class="cls-45" d="M63.43,56.81C63.27,51.53,49,47.7,31.52,48.26S0,53.54.21,58.82s14.45,9.11,31.92,8.55S63.6,62.09,63.43,56.81Z"/><path class="cls-46" d="M35.5,58.53c-.33-3.48-4.71-5.91-9.77-5.42s-8.9,3.71-8.56,7.2,4.72,5.91,9.78,5.42S35.84,62,35.5,58.53Z"/><path class="cls-47" d="M34.61,59.22c-.29-3-4.63-5.07-9.69-4.58S16,58,16.28,61s4.63,5.07,9.69,4.58S34.9,62.24,34.61,59.22Z"/><path class="cls-48" d="M37.05,57.13c-.21-2.2-5.95-3.45-12.83-2.78s-12.28,3-12.07,5.19S18.11,63,25,62.32,37.27,59.33,37.05,57.13Z"/><path class="cls-49" d="M95.5,48.33c-.56-3.84-11.29-5.46-24-3.63S49,51.14,49.54,55s11.29,5.46,24,3.63S96.06,52.16,95.5,48.33Z"/><path class="cls-50" d="M96,33.35C97.12,29.65,86.57,23,72.4,18.58S45.8,13.5,44.64,17.2,54,27.51,68.19,32,94.79,37.05,96,33.35Z"/><path class="cls-51" d="M62.39,23.19C64.17,17.54,52.5,8.83,36.33,3.74S5.61-.9,3.83,4.75,13.71,19.11,29.89,24.2,60.61,28.84,62.39,23.19Z"/><path class="cls-52" d="M45.56,21.47c1.36-3.5-1.66-7.94-6.74-9.92S28.5,10.8,27.14,14.31s1.66,7.94,6.74,9.92S44.19,25,45.56,21.47Z"/><path class="cls-53" d="M43.76,21.51c1.16-3-2-7-7.1-9s-10.15-1.16-11.32,1.83,2,7,7.11,9S42.6,24.5,43.76,21.51Z"/><path class="cls-54" d="M49.21,21.16c.87-2.24-4.83-6.55-12.74-9.62S21.45,7.78,20.58,10s4.83,6.55,12.73,9.63S48.33,23.4,49.21,21.16Z"/></g><path class="cls-55" d="M117.13,55.4c.06-2.71-7.23-5.08-16.29-5.3s-16.47,1.79-16.53,4.5,7.23,5.08,16.29,5.3S117.06,58.1,117.13,55.4Z"/><path class="cls-56" d="M115.21,51.89C115.3,48.07,108,44.8,99,44.57s-16.49,2.7-16.58,6.51,7.18,7.1,16.24,7.32S115.11,55.7,115.21,51.89Z"/><path class="cls-57" d="M167.78,52.39c-.3-3.81-18.22-5.53-40-3.85s-39.26,6.13-39,9.94,18.22,5.53,40,3.85S168.07,56.2,167.78,52.39Z"/><path class="cls-58" d="M171.45,51.36c.1-3.82-19.65-7.39-44.1-8s-44.35,2-44.44,5.84,19.66,7.39,44.11,8S171.36,55.18,171.45,51.36Z"/><path class="cls-59" d="M120.46,41.9c.46-3.43-5.93-7.12-14.26-8.24s-15.47.75-15.93,4.18,5.92,7.12,14.26,8.24S120,45.33,120.46,41.9Z"/><path class="cls-60" d="M138.55,51.36c1-3.31-9.83-9.55-24.22-13.94s-26.86-5.27-27.87-2S96.29,45,110.68,49.4,137.54,54.67,138.55,51.36Z"/><path class="cls-61" d="M116.41,37.74c.42-3.13-5.41-6.5-13-7.52S89.27,30.9,88.85,34s5.41,6.49,13,7.52S116,40.87,116.41,37.74Z"/><path class="cls-62" d="M109.84,64.38c-1.92-3.25-8.44-2.95-14.56.67s-9.51,9.2-7.58,12.45,8.44,3,14.56-.67S111.77,67.64,109.84,64.38Z"/></g></g></g></svg>